<svg width="376" height="156" viewBox="0 0 376 156" fill="none" xmlns="http://www.w3.org/2000/svg">
<g opacity="0.1">
<path d="M272.5 -51C329.661 -51 376 -4.66147 376 52.5C376 109.661 329.661 156 272.5 156C215.339 156 169 109.661 169 52.5C169 -4.66147 215.339 -51 272.5 -51ZM272.5 -12C236.878 -12 208 16.8776 208 52.5C208 88.1224 236.878 117 272.5 117C308.122 117 337 88.1224 337 52.5C337 16.8776 308.122 -12 272.5 -12Z" fill="#4A6CF7"/>
<path d="M96 50C125.271 50 149 73.7289 149 103C149 132.271 125.271 156 96 156C66.7289 156 43 132.271 43 103C43 73.7289 66.7289 50 96 50ZM96 76C81.0883 76 69 88.0883 69 103C69 117.912 81.0883 130 96 130C110.912 130 123 117.912 123 103C123 88.0883 110.912 76 96 76Z" fill="#4A6CF7"/>
<path d="M19.5 7C30.2696 7 39 15.7304 39 26.5C39 37.2696 30.2696 46 19.5 46C8.73045 46 0 37.2696 0 26.5C0 15.7304 8.73045 7 19.5 7Z" fill="#4A6CF7"/>
</g>
</svg>
