<svg width="400" height="168" viewBox="0 0 400 168" fill="none" xmlns="http://www.w3.org/2000/svg">
<g opacity="0.5">
<path d="M193.134 257.017C143.63 285.598 80.3308 268.637 51.7501 219.134C23.1693 169.63 40.1304 106.331 89.6337 77.75C139.137 49.1693 202.437 66.1304 231.017 115.634C259.598 165.137 242.637 228.437 193.134 257.017ZM173.634 223.242C204.484 205.431 215.054 165.984 197.242 135.134C179.431 104.284 139.984 93.7138 109.134 111.525C78.2838 129.336 67.7139 168.784 85.5251 199.634C103.336 230.484 142.784 241.053 173.634 223.242Z" fill="#4A6CF7"/>
<path d="M295.487 81.2987C270.138 95.9343 237.723 87.2489 223.088 61.8994C208.452 36.5499 217.138 4.13557 242.487 -10.5C267.837 -25.1355 300.251 -16.4501 314.886 8.89936C329.522 34.2489 320.837 66.6632 295.487 81.2987ZM282.487 58.782C295.401 51.3262 299.826 34.8133 292.37 21.8994C284.914 8.98546 268.401 4.56083 255.487 12.0167C242.573 19.4725 238.149 35.9855 245.604 48.8994C253.06 61.8133 269.573 66.2379 282.487 58.782Z" fill="#4A6CF7"/>
<path d="M383.238 80.2878C373.911 85.6726 361.985 82.477 356.6 73.1503C351.216 63.8236 354.411 51.8976 363.738 46.5128C373.065 41.128 384.991 44.3236 390.375 53.6503C395.76 62.977 392.565 74.903 383.238 80.2878Z" fill="#4A6CF7"/>
</g>
</svg>
